<svg xmlns="http://www.w3.org/2000/svg" xmlns:xlink="http://www.w3.org/1999/xlink" width="200" height="200" viewBox="0 0 200 200">
  <defs>
    <style>
      .cls-1 {
        clip-path: url(#clip-画板_1);
      }

      .cls-2 {
        fill: #fff;
      }
    </style>
    <clipPath id="clip-画板_1">
      <rect width="200" height="200"/>
    </clipPath>
  </defs>
  <g id="画板_1" data-name="画板 – 1" class="cls-1">
    <path id="联合_1" data-name="联合 1" class="cls-2" d="M92.93,141.176V62.155H59.674v-14.3H92.93V19.523h14.2V47.858h33.256v14.3H107.131v79.022Zm36.336-2.848.056-.028c-.018.022-.032.033-.044.033A.017.017,0,0,1,129.265,138.328ZM70.678,138.3l.056.028a.017.017,0,0,1-.012.006C70.71,138.332,70.7,138.321,70.678,138.3Zm73.031-12.932c9.685-3.58,38.938-10.441,47.952-12.522.012-23.254-.014-86.776-.014-86.776s-4.048.176-10.544.884c-.007,32.244.07,81.93.07,81.93l-5.524.936v-.171c-6.952,1.494-32.7,7.54-47.269,17.989.332-.495,2.549-9.377,23.978-16.388,12.022-3.933,19.219-6.069,23.291-7.2V7.13s-28.7,2.857-49.987,24.339c-.173.1,3.948-7.345,13.279-15.272s23.04-12,42.248-16.2c-.048.028-.072,7.536-.082,18.594,5.795-.842,12.087-1.514,18.893-1.948-.2.564,0,96.59,0,96.59v6.821a61.814,61.814,0,0,0-8.048,1.084l-.02.074s-42.366,7.138-62.61,17.084A25.032,25.032,0,0,1,143.709,125.367ZM8.068,121.215l-.02-.074A61.97,61.97,0,0,0,0,120.057v-6.821S.2,17.21,0,16.646c6.805.434,13.1,1.106,18.893,1.948C18.884,7.535,18.86.028,18.812,0,38.019,4.192,51.73,8.268,61.059,16.2S74.51,31.573,74.338,31.469C53.051,9.987,24.351,7.13,24.351,7.13v96.918c4.072,1.131,11.27,3.267,23.29,7.2,21.427,7.01,23.646,15.892,23.978,16.388C57.053,117.186,31.3,111.14,24.351,109.647v.171l-5.524-.936S18.9,59.2,18.9,26.951c-6.5-.708-10.544-.884-10.544-.884s-.025,63.523-.014,86.777c9.013,2.081,38.266,8.942,47.951,12.521A25.031,25.031,0,0,1,70.678,138.3C50.434,128.353,8.068,121.215,8.068,121.215Zm120.283,6.442.029-.021c-.01.014-.018.022-.025.022Zm-56.733-.022.029.021h0C71.636,127.657,71.628,127.65,71.618,127.635Z" transform="translate(0 29)"/>
  </g>
</svg>
